<svg width="3755" height="800" viewBox="0 0 3755 800" fill="none" xmlns="http://www.w3.org/2000/svg">
<g clip-path="url(#clip0_158_15)">
<path d="M1085 505C1067 505 1050.67 501.333 1036 494C1021.67 486.333 1010.17 475.833 1001.5 462.5C992.833 449.167 988 434 987 417V345.5C988 328.167 992.833 313 1001.5 300C1010.5 286.667 1022.17 276.333 1036.5 269C1051.17 261.333 1067.33 257.5 1085 257.5C1106.67 257.5 1126.17 263 1143.5 274C1161.17 285 1175 299.833 1185 318.5C1195 337.167 1200 358.167 1200 381.5C1200 404.833 1195 425.833 1185 444.5C1175 463.167 1161.17 478 1143.5 489C1126.17 499.667 1106.67 505 1085 505ZM960 599.5V262.5H1005V325L996.5 382.5L1005 440.5V599.5H960ZM1077.5 462.5C1092.5 462.5 1105.67 459 1117 452C1128.33 445 1137.33 435.5 1144 423.5C1150.67 411.167 1154 397 1154 381C1154 365.333 1150.67 351.333 1144 339C1137.33 326.667 1128.33 317.167 1117 310.5C1105.67 303.5 1092.67 300 1078 300C1063 300 1049.83 303.5 1038.5 310.5C1027.17 317.167 1018.33 326.667 1012 339C1005.67 351.333 1002.5 365.5 1002.5 381.5C1002.5 397.167 1005.5 411.167 1011.5 423.5C1017.83 435.5 1026.67 445 1038 452C1049.67 459 1062.83 462.5 1077.5 462.5ZM1419.02 500V361.5C1419.02 343.5 1413.35 328.667 1402.02 317C1390.68 305.333 1376.02 299.5 1358.02 299.5C1346.02 299.5 1335.35 302.167 1326.02 307.5C1316.68 312.833 1309.35 320.167 1304.02 329.5C1298.68 338.833 1296.02 349.5 1296.02 361.5L1277.52 351C1277.52 333 1281.52 317 1289.52 303C1297.52 289 1308.68 278 1323.02 270C1337.35 261.667 1353.52 257.5 1371.52 257.5C1389.52 257.5 1405.35 261.5 1419.02 269.5C1433.02 277.5 1444.02 288.667 1452.02 303C1460.02 317.333 1464.02 333.833 1464.02 352.5V500H1419.02ZM1251.02 500V143H1296.02V500H1251.02ZM1524.94 500V262.5H1569.94V500H1524.94ZM1569.94 364.5L1552.94 357C1552.94 326.667 1559.94 302.5 1573.94 284.5C1587.94 266.5 1608.11 257.5 1634.44 257.5C1646.44 257.5 1657.27 259.667 1666.94 264C1676.61 268 1685.61 274.833 1693.94 284.5L1664.44 315C1659.44 309.667 1653.94 305.833 1647.94 303.5C1641.94 301.167 1634.94 300 1626.94 300C1610.27 300 1596.61 305.333 1585.94 316C1575.27 326.667 1569.94 342.833 1569.94 364.5ZM1818.81 505C1797.15 505 1777.48 499.667 1759.81 489C1742.15 478 1728.15 463.167 1717.81 444.5C1707.81 425.833 1702.81 404.833 1702.81 381.5C1702.81 358.167 1707.81 337.167 1717.81 318.5C1728.15 299.833 1741.98 285 1759.31 274C1776.98 263 1796.81 257.5 1818.81 257.5C1836.81 257.5 1852.81 261.333 1866.81 269C1881.15 276.333 1892.65 286.667 1901.31 300C1909.98 313 1914.81 328.167 1915.81 345.5V417C1914.81 434 1909.98 449.167 1901.31 462.5C1892.98 475.833 1881.65 486.333 1867.31 494C1853.31 501.333 1837.15 505 1818.81 505ZM1826.31 462.5C1848.65 462.5 1866.65 455 1880.31 440C1893.98 424.667 1900.81 405.167 1900.81 381.5C1900.81 365.167 1897.65 351 1891.31 339C1885.31 326.667 1876.65 317.167 1865.31 310.5C1853.98 303.5 1840.81 300 1825.81 300C1810.81 300 1797.48 303.5 1785.81 310.5C1774.48 317.5 1765.48 327.167 1758.81 339.5C1752.48 351.5 1749.31 365.333 1749.31 381C1749.31 397 1752.48 411.167 1758.81 423.5C1765.48 435.5 1774.65 445 1786.31 452C1797.98 459 1811.31 462.5 1826.31 462.5ZM1897.81 500V436L1906.31 378L1897.81 320.5V262.5H1943.31V500H1897.81ZM2084.33 505C2070.99 505 2058.33 503.333 2046.33 500C2034.66 496.333 2023.83 491.333 2013.83 485C2003.83 478.333 1995.16 470.5 1987.83 461.5L2016.83 432.5C2025.49 443.167 2035.49 451.167 2046.83 456.5C2058.16 461.5 2070.83 464 2084.83 464C2098.83 464 2109.66 461.667 2117.33 457C2124.99 452 2128.83 445.167 2128.83 436.5C2128.83 427.833 2125.66 421.167 2119.33 416.5C2113.33 411.5 2105.49 407.5 2095.83 404.5C2086.16 401.167 2075.83 398 2064.83 395C2054.16 391.667 2043.99 387.5 2034.33 382.5C2024.66 377.5 2016.66 370.667 2010.33 362C2004.33 353.333 2001.33 341.833 2001.33 327.5C2001.33 313.167 2004.83 300.833 2011.83 290.5C2018.83 279.833 2028.49 271.667 2040.83 266C2053.49 260.333 2068.66 257.5 2086.33 257.5C2104.99 257.5 2121.49 260.833 2135.83 267.5C2150.49 273.833 2162.49 283.5 2171.83 296.5L2142.83 325.5C2136.16 316.833 2127.83 310.167 2117.83 305.5C2108.16 300.833 2097.16 298.5 2084.83 298.5C2071.83 298.5 2061.83 300.833 2054.83 305.5C2048.16 309.833 2044.83 316 2044.83 324C2044.83 332 2047.83 338.167 2053.83 342.5C2059.83 346.833 2067.66 350.5 2077.33 353.5C2087.33 356.5 2097.66 359.667 2108.33 363C2118.99 366 2129.16 370.167 2138.83 375.5C2148.49 380.833 2156.33 388 2162.33 397C2168.66 406 2171.83 417.833 2171.83 432.5C2171.83 454.833 2163.83 472.5 2147.83 485.5C2132.16 498.5 2110.99 505 2084.33 505ZM2332.21 505C2308.54 505 2287.21 499.667 2268.21 489C2249.21 478 2234.21 463.167 2223.21 444.5C2212.21 425.833 2206.71 404.667 2206.71 381C2206.71 357.667 2212.04 336.667 2222.71 318C2233.71 299.333 2248.37 284.667 2266.71 274C2285.37 263 2306.21 257.5 2329.21 257.5C2351.21 257.5 2370.54 262.5 2387.21 272.5C2404.21 282.5 2417.37 296.333 2426.71 314C2436.37 331.667 2441.21 351.667 2441.21 374C2441.21 377.333 2441.04 381 2440.71 385C2440.37 388.667 2439.71 393 2438.71 398H2238.21V360.5H2414.71L2398.21 375C2398.21 359 2395.37 345.5 2389.71 334.5C2384.04 323.167 2376.04 314.5 2365.71 308.5C2355.37 302.167 2342.87 299 2328.21 299C2312.87 299 2299.37 302.333 2287.71 309C2276.04 315.667 2267.04 325 2260.71 337C2254.37 349 2251.21 363.167 2251.21 379.5C2251.21 396.167 2254.54 410.833 2261.21 423.5C2267.87 435.833 2277.37 445.5 2289.71 452.5C2302.04 459.167 2316.21 462.5 2332.21 462.5C2345.54 462.5 2357.71 460.167 2368.71 455.5C2380.04 450.833 2389.71 443.833 2397.71 434.5L2426.71 464C2415.37 477.333 2401.37 487.5 2384.71 494.5C2368.37 501.5 2350.87 505 2332.21 505ZM2555.34 500L2461.34 262.5H2508.34L2576.34 447.5H2561.34L2628.84 262.5H2654.84L2722.34 447.5H2707.34L2775.34 262.5H2822.34L2728.84 500H2702.34L2633.84 320.5H2650.34L2581.34 500H2555.34ZM2964.01 505C2940.67 505 2919.67 499.5 2901.01 488.5C2882.34 477.5 2867.51 462.667 2856.51 444C2845.51 425 2840.01 403.833 2840.01 380.5C2840.01 357.5 2845.51 336.833 2856.51 318.5C2867.51 299.833 2882.34 285 2901.01 274C2919.67 263 2940.67 257.5 2964.01 257.5C2987.01 257.5 3007.84 263 3026.51 274C3045.51 284.667 3060.51 299.333 3071.51 318C3082.51 336.667 3088.01 357.5 3088.01 380.5C3088.01 403.833 3082.51 425 3071.51 444C3060.51 462.667 3045.51 477.5 3026.51 488.5C3007.84 499.5 2987.01 505 2964.01 505ZM2964.01 461.5C2979.01 461.5 2992.34 458 3004.01 451C3015.67 444 3024.84 434.5 3031.51 422.5C3038.17 410.167 3041.51 396.167 3041.51 380.5C3041.51 365.167 3038.01 351.5 3031.01 339.5C3024.34 327.5 3015.17 318.167 3003.51 311.5C2992.17 304.5 2979.01 301 2964.01 301C2949.01 301 2935.67 304.5 2924.01 311.5C2912.34 318.167 2903.17 327.5 2896.51 339.5C2889.84 351.5 2886.51 365.167 2886.51 380.5C2886.51 396.167 2889.84 410.167 2896.51 422.5C2903.17 434.5 2912.34 444 2924.01 451C2935.67 458 2949.01 461.5 2964.01 461.5ZM3138.71 500V262.5H3183.71V500H3138.71ZM3183.71 364.5L3166.71 357C3166.71 326.667 3173.71 302.5 3187.71 284.5C3201.71 266.5 3221.88 257.5 3248.21 257.5C3260.21 257.5 3271.04 259.667 3280.71 264C3290.38 268 3299.38 274.833 3307.71 284.5L3278.21 315C3273.21 309.667 3267.71 305.833 3261.71 303.5C3255.71 301.167 3248.71 300 3240.71 300C3224.04 300 3210.38 305.333 3199.71 316C3189.04 326.667 3183.71 342.833 3183.71 364.5ZM3491.39 500L3380.39 378.5L3490.39 262.5H3544.89L3422.39 390.5L3424.39 364.5L3549.39 500H3491.39ZM3339.39 500V143H3384.39V500H3339.39ZM3649.76 505C3636.42 505 3623.76 503.333 3611.76 500C3600.09 496.333 3589.26 491.333 3579.26 485C3569.26 478.333 3560.59 470.5 3553.26 461.5L3582.26 432.5C3590.92 443.167 3600.92 451.167 3612.26 456.5C3623.59 461.5 3636.26 464 3650.26 464C3664.26 464 3675.09 461.667 3682.76 457C3690.42 452 3694.26 445.167 3694.26 436.5C3694.26 427.833 3691.09 421.167 3684.76 416.5C3678.76 411.5 3670.92 407.5 3661.26 404.5C3651.59 401.167 3641.26 398 3630.26 395C3619.59 391.667 3609.42 387.5 3599.76 382.5C3590.09 377.5 3582.09 370.667 3575.76 362C3569.76 353.333 3566.76 341.833 3566.76 327.5C3566.76 313.167 3570.26 300.833 3577.26 290.5C3584.26 279.833 3593.92 271.667 3606.26 266C3618.92 260.333 3634.09 257.5 3651.76 257.5C3670.42 257.5 3686.92 260.833 3701.26 267.5C3715.92 273.833 3727.92 283.5 3737.26 296.5L3708.26 325.5C3701.59 316.833 3693.26 310.167 3683.26 305.5C3673.59 300.833 3662.59 298.5 3650.26 298.5C3637.26 298.5 3627.26 300.833 3620.26 305.5C3613.59 309.833 3610.26 316 3610.26 324C3610.26 332 3613.26 338.167 3619.26 342.5C3625.26 346.833 3633.09 350.5 3642.76 353.5C3652.76 356.5 3663.09 359.667 3673.76 363C3684.42 366 3694.59 370.167 3704.26 375.5C3713.92 380.833 3721.76 388 3727.76 397C3734.09 406 3737.26 417.833 3737.26 432.5C3737.26 454.833 3729.26 472.5 3713.26 485.5C3697.59 498.5 3676.42 505 3649.76 505Z" fill="black"/>
<mask id="mask0_158_15" style="mask-type:luminance" maskUnits="userSpaceOnUse" x="0" y="0" width="800" height="800">
<path d="M800 0H0V800H800V0Z" fill="white"/>
</mask>
<g mask="url(#mask0_158_15)">
<path d="M400 0C620.914 0 800 179.086 800 400C800 620.914 620.914 800 400 800C179.086 800 0 620.914 0 400C0 179.086 179.086 0 400 0ZM400 39C200.625 39 39 200.625 39 400C39 599.375 200.625 761 400 761C599.375 761 761 599.375 761 400C761 200.625 599.375 39 400 39Z" fill="#7373FB"/>
<path d="M98.1016 545V258.672H190.875C226.031 258.672 248.948 260.104 259.625 262.969C276.031 267.266 289.768 276.641 300.836 291.094C311.904 305.417 317.438 323.971 317.438 346.758C317.438 364.336 314.247 379.115 307.867 391.094C301.487 403.073 293.349 412.513 283.453 419.414C273.688 426.185 263.727 430.677 253.57 432.891C239.768 435.625 219.781 436.992 193.609 436.992H155.914V545H98.1016ZM155.914 307.109V388.359H187.555C210.341 388.359 225.576 386.862 233.258 383.867C240.94 380.872 246.93 376.185 251.227 369.805C255.654 363.424 257.867 356.003 257.867 347.539C257.867 337.122 254.807 328.529 248.688 321.758C242.568 314.987 234.82 310.755 225.445 309.062C218.544 307.76 204.677 307.109 183.844 307.109H155.914ZM405.523 545L337.164 258.672H396.344L439.508 455.352L491.852 258.672H560.602L610.797 458.672L654.742 258.672H712.945L643.414 545H582.086L525.055 330.938L468.219 545H405.523Z" fill="#7373FB"/>
</g>
</g>
<defs>
<clipPath id="clip0_158_15">
<rect width="3755" height="800" fill="white"/>
</clipPath>
</defs>
</svg>
