<svg width="800" height="800" viewBox="0 0 800 800" fill="none" xmlns="http://www.w3.org/2000/svg">
<g clip-path="url(#clip0_152_8)">
<path d="M400 0C620.914 0 800 179.086 800 400C800 620.914 620.914 800 400 800C179.086 800 0 620.914 0 400C0 179.086 179.086 0 400 0ZM400 39C200.625 39 39 200.625 39 400C39 599.375 200.625 761 400 761C599.375 761 761 599.375 761 400C761 200.625 599.375 39 400 39Z" fill="#7373FB"/>
<path d="M98.1016 545V258.672H190.875C226.031 258.672 248.948 260.104 259.625 262.969C276.031 267.266 289.768 276.641 300.836 291.094C311.904 305.417 317.438 323.971 317.438 346.758C317.438 364.336 314.247 379.115 307.867 391.094C301.487 403.073 293.349 412.513 283.453 419.414C273.688 426.185 263.727 430.677 253.57 432.891C239.768 435.625 219.781 436.992 193.609 436.992H155.914V545H98.1016ZM155.914 307.109V388.359H187.555C210.341 388.359 225.576 386.862 233.258 383.867C240.94 380.872 246.93 376.185 251.227 369.805C255.654 363.424 257.867 356.003 257.867 347.539C257.867 337.122 254.807 328.529 248.688 321.758C242.568 314.987 234.82 310.755 225.445 309.062C218.544 307.76 204.677 307.109 183.844 307.109H155.914ZM405.523 545L337.164 258.672H396.344L439.508 455.352L491.852 258.672H560.602L610.797 458.672L654.742 258.672H712.945L643.414 545H582.086L525.055 330.938L468.219 545H405.523Z" fill="#7373FB"/>
</g>
<defs>
<clipPath id="clip0_152_8">
<rect width="800" height="800" fill="white"/>
</clipPath>
</defs>
</svg>
